<?xml version="1.0" encoding="UTF-8"?>
<svg width="128pt" height="128pt" version="1.1" viewBox="0 0 128 128" xmlns="http://www.w3.org/2000/svg">
 <path d="m75.312 101.18c-2.1562 2.1523-5.3906-1.0781-3.2305-3.2305l1.6133-1.6172-3.5508-3.5547v-0.003907c-0.86719-0.89844-0.85547-2.3242 0.027344-3.207 0.88281-0.87891 2.3086-0.89453 3.2031-0.027344l3.5508 3.5547 16.164-16.164-3.5547-3.5508c-0.86719-0.89453-0.85156-2.3203 0.027344-3.2031 0.88281-0.88281 2.3086-0.89453 3.207-0.027344l3.5547 3.5508 1.6172-1.6133c2.1523-2.1562 5.3867 1.0742 3.2305 3.2305l-8.082 8.082 14.547 14.547h0.003906c0.89062 0.89453 0.89062 2.3398 0 3.2344l-6.4648 6.4648c-0.89453 0.89062-2.3398 0.89062-3.2344 0l-14.547-14.547zm-30.711-8.082-14.547 14.547h0.003906c-0.89453 0.89062-2.3398 0.89062-3.2344 0l-6.4648-6.4648c-0.89062-0.89453-0.89062-2.3398 0-3.2344l14.547-14.547-8.082-8.082c-2.1523-2.1562 1.0781-5.3906 3.2305-3.2305l1.6172 1.6133 50.102-50.102h0.003906c0.42969-0.42969 1.0117-0.66797 1.6211-0.66797h19.391c0.60547 0 1.1875 0.24219 1.6172 0.66797 0.42578 0.42969 0.66797 1.0117 0.66797 1.6172v19.391c0 0.60938-0.23828 1.1914-0.66797 1.6211l-50.102 50.102 1.6133 1.6172c2.1562 2.1523-1.0742 5.3867-3.2305 3.2305l-8.082-8.082zm39.738-65.602-49.434 49.441 16.164 16.164 49.434-49.441v-16.16h-16.16zm-46.199 59.137-12.93 12.93 3.2305 3.2305 12.93-12.93zm-10.641-42.973 10.641 10.648c0.44141 0.42578 0.69141 1.0117 0.69531 1.625 0.007812 0.61328-0.23438 1.1992-0.66797 1.6328-0.43359 0.43359-1.0234 0.67578-1.6367 0.67188-0.61328-0.007813-1.1992-0.25781-1.625-0.69922l-11.312-11.316c-0.42969-0.42969-0.66797-1.0117-0.66797-1.6211v-19.387c0-0.60547 0.24219-1.1875 0.66797-1.6172 0.42969-0.42578 1.0117-0.66797 1.6172-0.66797h19.391c0.60938 0 1.1914 0.23828 1.6211 0.66797l11.312 11.312c0.44141 0.42578 0.69141 1.0117 0.69922 1.625 0.003906 0.61328-0.23828 1.2031-0.67188 1.6367-0.43359 0.43359-1.0195 0.67578-1.6328 0.66797-0.61328-0.003907-1.1992-0.25391-1.625-0.69531l-10.648-10.645h-16.16v16.16zm59.129 46.203 12.93 12.93 3.2305-3.2305-12.93-12.93z" fill="#fff"/>
</svg>
